{
   "accessors" : [
      {
         "bufferView" : 0,
         "byteOffset" : 0,
         "componentType" : 5123,
         "count" : 65535,
         "max" : [ 65534 ],
         "min" : [ 0 ],
         "name" : "buffer-0-group-0-mesh-0-indices",
         "type" : "SCALAR"
      },
      {
         "bufferView" : 2,
         "byteOffset" : 0,
         "componentType" : 5126,
         "count" : 65535,
         "max" : [ 19.60584259033203, 0, 21.60297012329102 ],
         "min" : [ -0.3576533794403076, -144.8898010253906, -28.27033042907715 ],
         "name" : "buffer-0-group-0-mesh-0-position",
         "type" : "VEC3"
      },
      {
         "bufferView" : 2,
         "byteOffset" : 786420,
         "componentType" : 5126,
         "count" : 65535,
         "max" : [ 0.9999844431877136, 0.9998627305030823, 0.9980487823486328 ],
         "min" : [ -0.9999706745147705, -0.9999237060546875, -0.9999960064888 ],
         "name" : "buffer-0-group-0-mesh-0-normal",
         "type" : "VEC3"
      },
      {
         "bufferView" : 0,
         "byteOffset" : 131070,
         "componentType" : 5123,
         "count" : 43329,
         "max" : [ 43328 ],
         "min" : [ 0 ],
         "name" : "buffer-0-group-0-mesh-1-indices",
         "type" : "SCALAR"
      },
      {
         "bufferView" : 2,
         "byteOffset" : 1572840,
         "componentType" : 5126,
         "count" : 43329,
         "max" : [ 9.624094009399414, 0, 21.60297012329102 ],
         "min" : [ -0.3576533794403076, -144.8898010253906, -28.27033042907715 ],
         "name" : "buffer-0-group-0-mesh-1-position",
         "type" : "VEC3"
      },
      {
         "bufferView" : 2,
         "byteOffset" : 2092788,
         "componentType" : 5126,
         "count" : 43329,
         "max" : [ 0.9999706745147705, 0.9998625516891479, 0.9980489611625671 ],
         "min" : [ -0.9999844431877136, -0.9999236464500427, -0.9999960064888 ],
         "name" : "buffer-0-group-0-mesh-1-normal",
         "type" : "VEC3"
      }
   ],
   "asset" : {
      "extras" : {
         "GOOGLE_processor_version" : 293297437
      },
      "generator" : "Obj2GltfConverter",
      "version" : "2.0"
   },
   "bufferViews" : [
      {
         "buffer" : 0,
         "byteLength" : 217728,
         "byteOffset" : 0,
         "byteStride" : 0,
         "name" : "buffer-0-bufferview-ushort",
         "target" : 34963
      },
      {
         "buffer" : 0,
         "byteLength" : 1,
         "byteOffset" : 0,
         "name" : "buffer-0-bufferview-vec2"
      },
      {
         "buffer" : 0,
         "byteLength" : 2612736,
         "byteOffset" : 217728,
         "byteStride" : 12,
         "name" : "buffer-0-bufferview-vec3",
         "target" : 34962
      },
      {
         "buffer" : 0,
         "byteLength" : 1,
         "byteOffset" : 0,
         "name" : "buffer-0-bufferview-vec4"
      }
   ],
   "buffers" : [
      {
         "byteLength" : 2830464,
         "name" : "buffer-0",
         "uri" : "mokele.bin"
      }
   ],
   "cameras" : [
      {
         "perspective" : {
            "yfov" : 0.7853981633974483,
            "znear" : 0.1000000014901161
         },
         "type" : "perspective"
      }
   ],
   "extensions" : {
      "KHR_lights_punctual" : {
         "lights" : [
            {
               "color" : [ 1, 0.9333333333333333, 0.8666666666666667 ],
               "intensity" : 0.25,
               "name" : "headLight",
               "type" : "directional"
            },
            {
               "color" : [ 1, 0.9333333333333333, 0.8666666666666667 ],
               "intensity" : 0.324999988079071,
               "name" : "keyLight",
               "type" : "directional"
            }
         ]
      }
   },
   "extensionsUsed" : [ "GOOGLE_backgrounds", "GOOGLE_camera_settings", "KHR_lights_punctual" ],
   "extras" : {
      "GOOGLE_initial_camera_motion" : {
         "motionPath" : "FULL_ROTATION"
      },
      "GOOGLE_lighting_rig" : {
         "disableShadows" : false
      }
   },
   "materials" : [
      {
         "alphaMode" : "OPAQUE",
         "doubleSided" : true,
         "name" : "[0098_DodgerBlue]",
         "pbrMetallicRoughness" : {
            "baseColorFactor" : [ 0.117647, 0.564706, 1, 1 ],
            "metallicFactor" : 0,
            "roughnessFactor" : 0.9699476628648295
         }
      }
   ],
   "meshes" : [
      {
         "name" : "buffer-0-mesh-0",
         "primitives" : [
            {
               "attributes" : {
                  "NORMAL" : 2,
                  "POSITION" : 1
               },
               "indices" : 0,
               "material" : 0,
               "mode" : 4
            },
            {
               "attributes" : {
                  "NORMAL" : 5,
                  "POSITION" : 4
               },
               "indices" : 3,
               "material" : 0,
               "mode" : 4
            }
         ]
      }
   ],
   "nodes" : [
      {
         "mesh" : 0,
         "name" : "node-0"
      },
      {
         "children" : [ 2 ]
      },
      {
         "children" : [ 3 ],
         "extras" : {
            "isTransformNode" : 1
         },
         "rotation" : [ -0.5, 0.5, 0.4999999999999999, 0.5000000000000001 ],
         "translation" : [ 9.268336279375561, -85.83925322094882, -9.420396024890927 ]
      },
      {
         "children" : [ 0 ],
         "translation" : [ -9.268336279375561, 85.83925322094882, 9.420396024890927 ]
      },
      {
         "camera" : 0,
         "children" : [ 5 ],
         "rotation" : [
            -0.1383076420575473,
            0.5617201299772033,
            0.095910694841966,
            0.8100263145983632
         ],
         "translation" : [ 88.08448097983076, -52.78654175943402, 3.714000866713359 ]
      },
      {
         "extensions" : {
            "KHR_lights_punctual" : {
               "light" : 0
            }
         },
         "extras" : {
            "isHeadLight" : 1
         },
         "name" : "headLightNode",
         "translation" : [ -114.4867545309263, 57.24337726546313, 57.24337726546313 ]
      },
      {
         "extensions" : {
            "KHR_lights_punctual" : {
               "light" : 1
            }
         },
         "extras" : {
            "isKeyLight" : 1
         },
         "name" : "keyLightNode",
         "rotation" : [ -0.7505326882858236, -0.3752663441429118, 0, 0.5439447166468927 ],
         "scale" : [ 0, 0, 115.6316220762355 ],
         "translation" : [ -83.98942812714715, 154.8256309977041, -125.4077760887208 ]
      }
   ],
   "scene" : 0,
   "scenes" : [
      {
         "extensions" : {
            "GOOGLE_backgrounds" : {
               "color" : [ 0, 0.3019607843137255, 0.2509803921568627 ]
            },
            "GOOGLE_camera_settings" : {}
         },
         "extras" : {
            "GOOGLE_camera_index" : {
               "cameraIndex" : 0,
               "nodeIndex" : 4
            },
            "GOOGLE_geometry_data" : {
               "stats" : {
                  "centroid" : [ 31.64219394908838, -76.43761315476696, -9.776154012485245 ],
                  "radius" : 114.4867545309263,
                  "stdev" : 38.24947320964168
               },
               "visualCenterPoint" : [ 9.268336279375561, -85.83925322094882, -9.420396024890927 ]
            },
            "GOOGLE_hemi_light" : {
               "groundColor" : [ 0, 0.3019607843137255, 0.2509803921568627 ]
            }
         },
         "name" : "scene-0",
         "nodes" : [ 1, 4, 6 ]
      }
   ]
}
